<svg width="40px" height="41px" viewBox="0 0 26 31" fill="none" xmlns="http://www.w3.org/2000/svg">
<g clip-path="url(#clip0)">
<path d="M21.9845 1.21454H3.26357C1.47049 1.21454 0.0117188 2.96105 0.0117188 5.1078V27.0483C0.0117188 29.1951 1.47049 30.9416 3.26357 30.9416H21.9845C23.7776 30.9416 25.2363 29.1951 25.2363 27.0483V5.1078C25.2363 2.96105 23.7776 1.21454 21.9845 1.21454ZM3.26357 3.39768H21.9845C22.7747 3.39768 23.4129 4.16178 23.4129 5.1078V14.8592H1.83519V5.1078C1.83519 4.19816 2.4734 3.39768 3.26357 3.39768ZM21.9845 28.8312H3.26357C2.4734 28.8312 1.83519 28.0671 1.83519 27.1211V17.0787H23.4433V27.0847C23.4129 28.0308 22.7747 28.8312 21.9845 28.8312ZM17.1219 21.736C17.1219 23.4826 15.9367 24.938 14.4475 24.938H11.0133C9.55453 24.938 8.33889 23.5189 8.33889 21.736C8.33889 21.1175 8.73397 20.6445 9.25062 20.6445C9.76727 20.6445 10.1624 21.1175 10.1624 21.736C10.1624 22.2818 10.527 22.7548 11.0133 22.7548H14.4779C14.9338 22.7548 15.3288 22.3182 15.3288 21.736C15.3288 21.1175 15.7239 20.6445 16.2406 20.6445C16.7572 20.6445 17.1219 21.1903 17.1219 21.736ZM8.33889 7.36371C8.33889 6.74516 8.73397 6.27214 9.25062 6.27214C9.76727 6.27214 10.1624 6.74516 10.1624 7.36371C10.1624 7.9095 10.527 8.38251 11.0133 8.38251H14.4779C14.9338 8.38251 15.3288 7.94588 15.3288 7.36371C15.3288 6.74516 15.7239 6.27214 16.2406 6.27214C16.7572 6.27214 17.1523 6.74516 17.1523 7.36371C17.1523 9.11022 15.9671 10.5657 14.4779 10.5657H11.0133C9.55453 10.5657 8.33889 9.14661 8.33889 7.36371Z" fill="black"/>
</g>
<defs>
<clipPath id="clip0">
<rect width="25" height="30" fill="white" transform="translate(0.0117188 0.195801)"/>
</clipPath>
</defs>
</svg>
