<svg width="38" height="30" viewBox="0 0 38 30" fill="none" xmlns="http://www.w3.org/2000/svg">
    <g clip-path="url(#clip0)">
    <path d="M30.8535 0.144043H6.29461C2.85635 0.144043 0.0878906 2.32731 0.0878906 5.03879V24.4065C0.0878906 27.118 2.85635 29.3013 6.29461 29.3013H30.8535C34.2918 29.3013 37.0603 27.118 37.0603 24.4065V5.03879C37.0603 2.32731 34.2471 0.144043 30.8535 0.144043ZM34.3811 24.4065C34.3811 25.9207 32.8183 27.1884 30.8535 27.1884H6.29461C4.37454 27.1884 2.76705 25.9559 2.76705 24.4065V5.03879C2.76705 3.52459 4.32989 2.25688 6.29461 2.25688H30.8535C32.7736 2.25688 34.3811 3.48937 34.3811 5.03879V24.4065Z" fill="black"/>
    <path d="M24.075 13.7601C24.6472 12.9949 24.9993 12.0904 24.9993 11.1164V10.4207C24.9993 7.63789 22.1383 5.34204 18.5732 5.34204C15.008 5.34204 12.147 7.63789 12.147 10.4555V11.1512C12.147 12.1252 12.4991 13.0296 13.0713 13.7949C10.1223 14.8037 8.09766 17.1691 8.09766 19.8128V21.413C8.09766 22.9783 9.7262 24.2654 11.7069 24.2654H25.4394C27.4201 24.2654 29.0487 22.9783 29.0487 21.413V19.8128C29.0487 17.1343 27.024 14.8037 24.075 13.7601ZM14.7879 10.4555C14.7879 8.82059 16.5045 7.46396 18.5732 7.46396C20.6418 7.46396 22.3584 8.82059 22.3584 10.4555V11.1512C22.3584 12.7861 20.6418 14.1428 18.5732 14.1428C16.5045 14.1428 14.7879 12.7861 14.7879 11.1512V10.4555ZM26.4078 21.3782C26.4078 21.7956 25.9676 22.1435 25.4394 22.1435H11.7069C11.1787 22.1435 10.7385 21.7956 10.7385 21.3782V19.778C10.7385 17.6909 12.5872 15.8821 15.14 15.4298C16.1523 15.9168 17.2967 16.2299 18.5732 16.2299C19.8496 16.2299 20.994 15.9516 22.0063 15.4298C24.5592 15.8821 26.4078 17.6909 26.4078 19.778V21.3782Z" fill="black"/>
    </g>

    <defs>
    <clipPath id="clip0">
    <rect width="36.9724" height="29.2198" fill="white" transform="translate(0.0878906 0.159058)"/>
    </clipPath>
    </defs>
</svg>
