<svg width="40" height="41" viewBox="0 0 40 41" fill="none" xmlns="http://www.w3.org/2000/svg">
<g clip-path="url(#clip0)">
<path d="M33.8631 1.38635H5.0282C2.26641 1.38635 0.0195312 3.68505 0.0195312 6.51054V35.388C0.0195312 38.2135 2.26641 40.5122 5.0282 40.5122H33.8631C36.6249 40.5122 38.8718 38.2135 38.8718 35.388V6.51054C38.8718 3.68505 36.6249 1.38635 33.8631 1.38635ZM5.0282 4.25973H33.8631C35.0802 4.25973 36.0632 5.26541 36.0632 6.51054V19.345H2.82813V6.51054C2.82813 5.3133 3.81114 4.25973 5.0282 4.25973ZM33.8631 37.7346H5.0282C3.81114 37.7346 2.82813 36.7289 2.82813 35.4838V22.2662H36.11V35.4359C36.0632 36.681 35.0802 37.7346 33.8631 37.7346ZM26.3735 28.3961C26.3735 30.6948 24.548 32.6104 22.2543 32.6104H16.9647C14.7179 32.6104 12.8455 30.7427 12.8455 28.3961C12.8455 27.582 13.454 26.9594 14.2498 26.9594C15.0455 26.9594 15.6541 27.582 15.6541 28.3961C15.6541 29.1144 16.2158 29.737 16.9647 29.737H22.3011C23.0032 29.737 23.6118 29.1623 23.6118 28.3961C23.6118 27.582 24.2203 26.9594 25.0161 26.9594C25.8118 26.9594 26.3735 27.6777 26.3735 28.3961ZM12.8455 9.4797C12.8455 8.66557 13.454 8.04301 14.2498 8.04301C15.0455 8.04301 15.6541 8.66557 15.6541 9.4797C15.6541 10.198 16.2158 10.8206 16.9647 10.8206H22.3011C23.0032 10.8206 23.6118 10.2459 23.6118 9.4797C23.6118 8.66557 24.2203 8.04301 25.0161 8.04301C25.8118 8.04301 26.4204 8.66557 26.4204 9.4797C26.4204 11.7784 24.5948 13.694 22.3011 13.694H16.9647C14.7179 13.694 12.8455 11.8263 12.8455 9.4797Z" fill="black" fill-opacity="0.27"/>
</g>
<defs>
<clipPath id="clip0">
<rect width="39.3204" height="40.2273" fill="white" transform="translate(0.0195312 0.0454712)"/>
</clipPath>
</defs>
</svg>
